# xmcd
#
# Track frame offsets: 
#        150
#        17641
#        34725
#        52162
#        67028
#        83940
#        100459
#        118830
#        136163
#        155181
#        180276
#
# Disc length: 2720 seconds
#
# Revision: 0
# Processed by: cddbd v1.5.2PL0 Copyright (c) Steve Scherf et al.
# Submitted via: ExactAudioCopyFreeDBPlugin 1.0
#
DISCID=980a9e0b
DTITLE=Ruby Amanfu - Smoke and Honey
DYEAR=2003
DGENRE=Soul
TTITLE0=Sugah
TTITLE1=Chocolate Pie
TTITLE2=Just Until
TTITLE3=Know You Better
TTITLE4=Different Is Good
TTITLE5=Work It Out
TTITLE6=For Life
TTITLE7=I Will Pray
TTITLE8=Morning
TTITLE9=You Can't Use Me
TTITLE10=Bless You
EXTD=
EXTT0=
EXTT1=
EXTT2=
EXTT3=
EXTT4=
EXTT5=
EXTT6=
EXTT7=
EXTT8=
EXTT9=
EXTT10=
PLAYORDER=
